<?xml version="1.0" encoding="UTF-8" standalone="no"?>
<!-- Created with Inkscape (http://www.inkscape.org/) -->

<svg
   xmlns:dc="http://purl.org/dc/elements/1.1/"
   xmlns:cc="http://creativecommons.org/ns#"
   xmlns:rdf="http://www.w3.org/1999/02/22-rdf-syntax-ns#"
   xmlns:svg="http://www.w3.org/2000/svg"
   xmlns="http://www.w3.org/2000/svg"
   xmlns:sodipodi="http://sodipodi.sourceforge.net/DTD/sodipodi-0.dtd"
   xmlns:inkscape="http://www.inkscape.org/namespaces/inkscape"
   version="1.1"
   id="svg2"
   xml:space="preserve"
   width="1120.5601"
   height="565.61603"
   viewBox="0 0 1120.5601 565.61603"
   sodipodi:docname="logo.svg"
   inkscape:version="0.92.5 (2060ec1f9f, 2020-04-08)"><metadata
     id="metadata8"><rdf:RDF><cc:Work
         rdf:about=""><dc:format>image/svg+xml</dc:format><dc:type
           rdf:resource="http://purl.org/dc/dcmitype/StillImage" /><dc:title></dc:title></cc:Work></rdf:RDF></metadata><defs
     id="defs6"><clipPath
       clipPathUnits="userSpaceOnUse"
       id="clipPath20"><path
         d="M 0,0 H 840 V 424 H 0 Z"
         id="path18"
         inkscape:connector-curvature="0" /></clipPath></defs><sodipodi:namedview
     pagecolor="#ffffff"
     bordercolor="#666666"
     borderopacity="1"
     objecttolerance="10"
     gridtolerance="10"
     guidetolerance="10"
     inkscape:pageopacity="0"
     inkscape:pageshadow="2"
     inkscape:window-width="1862"
     inkscape:window-height="973"
     id="namedview4"
     showgrid="false"
     inkscape:zoom="0.90028971"
     inkscape:cx="560.28003"
     inkscape:cy="282.80801"
     inkscape:window-x="0"
     inkscape:window-y="0"
     inkscape:window-maximized="0"
     inkscape:current-layer="g10" /><g
     id="g10"
     inkscape:groupmode="layer"
     inkscape:label="2691-640a35f293ea9"
     transform="matrix(1.7786666,0,0,1.7786666,0,1.41404e-5)"><g
       id="g12"
       transform="scale(0.75)"><g
         id="g14"><g
           id="g16"
           clip-path="url(#clipPath20)"><g
             id="g22"><g
               id="g24"
               transform="translate(410.5,202.66)"><path
                 d="M -410,-202.15918 H 410 V 202.15918 H -410 Z"
                 style="fill:none;fill-opacity:1;fill-rule:nonzero;stroke:none"
                 id="path26"
                 inkscape:connector-curvature="0" /></g><g
               id="g28"
               transform="matrix(2.14,0,0,2.14,410,202.16)"><g
                 id="g30"
                 transform="matrix(1.63,0,0,1.28,15.08,0)"><g
                   id="g32"
                   transform="translate(-41.35,-70.1)"><g
                     id="g34"><path
                       d="m 32.161627,116.60578 v -11.60987 l 7.894703,5.17468 V 59.08722 L 13.917564,41.970974 v 51.083373 l 6.236154,4.046865 z M 30.96747,58.224774 32.426995,59.153562 V 99.62221 L 30.96747,98.693423 Z m -6.501521,-4.312231 1.459525,0.928787 V 95.309978 L 24.465949,94.381184 Z M 19.423954,91.064086 17.964429,90.135298 V 49.666652 l 1.459525,0.928787 z"
                       style="fill:#00a0e3;fill-opacity:1;fill-rule:nonzero;stroke:none;stroke-width:0.66342044"
                       id="path36"
                       inkscape:connector-curvature="0"
                       inkscape:export-xdpi="19.772099"
                       inkscape:export-ydpi="19.772099" /></g><g
                     id="g38"><path
                       d="M 41.449513,56.632565 15.178064,39.383634 41.250487,23.594227 67.521936,40.776818 Z"
                       style="fill:#004a75;fill-opacity:1;fill-rule:nonzero;stroke:none;stroke-width:0.66342044"
                       id="path40"
                       inkscape:connector-curvature="0"
                       inkscape:export-xdpi="19.772099"
                       inkscape:export-ydpi="19.772099" /></g><g
                     id="g42"><path
                       d="m 42.776355,59.08722 v 35.227628 l 7.894702,-4.776629 v 11.145461 l 11.01278,-17.779665 7.098598,-4.312234 V 78.260072 50.064702 43.364157 Z M 66.593148,71.161474 47.287612,83.036698 v -1.724893 l 19.040167,-11.6762 0.199026,0.398054 v 1.127815 z m 0,-8.160072 -19.305536,11.808883 v -1.724893 l 19.040167,-11.676199 0.199026,0.398051 v 1.194158 z m 0,-8.226414 -19.305536,11.875227 v -1.724894 l 19.040167,-11.6762 0.199026,0.398053 v 1.127814 z"
                       style="fill:#43c7f4;fill-opacity:1;fill-rule:nonzero;stroke:none;stroke-width:0.66342044"
                       id="path44"
                       inkscape:connector-curvature="0"
                       inkscape:export-xdpi="19.772099"
                       inkscape:export-ydpi="19.772099" /></g></g></g><g
                 id="g46"
                 transform="matrix(1.63,0,0,1.63,0,-11.25)"><g
                   id="g48"
                   transform="translate(0.5,0.5)"><g
                     id="g50"
                     transform="translate(-102.51)"><g
                       id="g52"><g
                         id="g54"><path
                           d="m 12.625801,-7.7064528 h 2.49 v 6.95000072 H 25.715803 V -7.7064528 h 2.49 V 8.393548 h -2.49 V 1.6335476 H 15.115801 V 8.393548 h -2.49 z"
                           style="fill:#3189bf;fill-opacity:1;fill-rule:nonzero;stroke:none"
                           id="path56"
                           inkscape:connector-curvature="0"
                           inkscape:export-xdpi="19.772099"
                           inkscape:export-ydpi="19.772099" /></g></g></g><g
                     id="g58"
                     transform="translate(-79.42)"><g
                       id="g60"><g
                         id="g62"><path
                           d="m 24.535803,-3.676452 h 2.37 v 12.07 h -2.37 v -2.05 c -0.293333,0.386667 -0.716667,0.753333 -1.27,1.1 -0.546668,0.34 -1.173334,0.623333 -1.880001,0.85 -0.706667,0.22 -1.46,0.33 -2.26,0.33 v 0 c -1.38,0 -2.58,-0.27 -3.600001,-0.81 -1.02,-0.533333 -1.813333,-1.276667 -2.38,-2.23 -0.566667,-0.946667 -0.85,-2.0266672 -0.85,-3.2400004 v 0 c 0,-1.226667 0.296667,-2.3099998 0.89,-3.24999964 0.586667,-0.94666696 1.41,-1.68666696 2.47,-2.21999996 1.060001,-0.54 2.280001,-0.81 3.660001,-0.81 v 0 c 1.16,0 2.196667,0.196667 3.11,0.59 0.913334,0.393333 1.616668,0.85 2.110001,1.37 v 0 z m -4.880001,10.11 v 0 c 0.98,0 1.846667,-0.18 2.6,-0.54 0.753334,-0.36 1.336668,-0.846667 1.750001,-1.46 0.413333,-0.6133331 0.62,-1.3100002 0.62,-2.0900004 v 0 c 0,-0.78 -0.206667,-1.47666696 -0.62,-2.08999984 -0.413333,-0.61333288 -0.996667,-1.0966668 -1.750001,-1.44999976 -0.753333,-0.353333 -1.62,-0.53 -2.6,-0.53 v 0 c -0.966667,0 -1.82,0.176667 -2.56,0.53 -0.746668,0.35333296 -1.330001,0.83666688 -1.750001,1.44999976 -0.42,0.61333288 -0.63,1.30999984 -0.63,2.08999984 v 0 c 0,0.7800002 0.21,1.4766673 0.63,2.0900004 0.42,0.613333 1.003333,1.1 1.750001,1.46 0.74,0.36 1.593333,0.54 2.56,0.54 z"
                           style="fill:#3189bf;fill-opacity:1;fill-rule:nonzero;stroke:none"
                           id="path64"
                           inkscape:connector-curvature="0"
                           inkscape:export-xdpi="19.772099"
                           inkscape:export-ydpi="19.772099" /></g></g></g><g
                     id="g66"
                     transform="translate(-57.49)"><g
                       id="g68"><g
                         id="g70"><path
                           d="m 16.085801,8.413548 -3.24,-0.02 5.800001,-6.3000004 -5.450001,-5.7699996 h 3.450001 l 3.86,4.40999964 4.000001,-4.40999964 h 3.27 l -5.770001,5.9999996 6.000001,6.0700004 h -3.36 L 20.135802,3.6535479 Z"
                           style="fill:#3189bf;fill-opacity:1;fill-rule:nonzero;stroke:none"
                           id="path72"
                           inkscape:connector-curvature="0"
                           inkscape:export-xdpi="19.772099"
                           inkscape:export-ydpi="19.772099" /></g></g></g><g
                     id="g74"
                     transform="translate(-40.96)"><g
                       id="g76"><g
                         id="g78" /></g></g><g
                     id="g80"
                     transform="translate(-29.75)"><g
                       id="g82"><g
                         id="g84" /></g></g><g
                     id="g86"
                     transform="translate(-18.54)"><g
                       id="g88"><g
                         id="g90" /></g></g><g
                     id="g92"
                     transform="translate(-7.33)"><g
                       id="g94"><g
                         id="g96" /></g></g><g
                     id="g98"
                     transform="translate(3.89)"><g
                       id="g100"><g
                         id="g102" /></g></g><g
                     id="g104"
                     transform="translate(15.1)"><g
                       id="g106"><g
                         id="g108" /></g></g><g
                     id="g110"
                     transform="translate(26.31)"><g
                       id="g112"><g
                         id="g114" /></g></g><g
                     id="g116"
                     transform="translate(37.52)"><g
                       id="g118"><g
                         id="g120" /></g></g><g
                     id="g122"
                     transform="translate(48.74)"><g
                       id="g124"><g
                         id="g126" /></g></g><g
                     id="g128"
                     transform="translate(59.95)"><g
                       id="g130"><g
                         id="g132" /></g></g><g
                     id="g134"
                     transform="translate(77.63)"><g
                       id="g136"><g
                         id="g138"><path
                           d="m -29.065414,-7.7064528 h 2.489999 v 6.95000072 h 10.600001 V -7.7064528 h 2.490001 V 8.393548 h -2.490001 V 1.6335476 H -26.575415 V 8.393548 h -2.489999 z"
                           style="fill:#3189bf;fill-opacity:1;fill-rule:nonzero;stroke:none"
                           id="path140"
                           inkscape:connector-curvature="0"
                           inkscape:export-xdpi="19.772099"
                           inkscape:export-ydpi="19.772099" /></g></g></g><g
                     id="g142"
                     transform="translate(102.15)"><g
                       id="g144"><g
                         id="g146"><path
                           d="m -15.715414,7.133548 1.930001,2.55 -1.970001,1.239999 -2.14,-2.809999 c -1.06,0.34 -2.186668,0.51 -3.380001,0.51 v 0 c -1.366667,0 -2.626667,-0.21 -3.78,-0.63 -1.146668,-0.426667 -2.133333,-1.013333 -2.959999,-1.76 -0.826667,-0.753333 -1.47,-1.633333 -1.929999,-2.6400001 -0.46,-1.0000002 -0.69,-2.0833333 -0.69,-3.25000018 v 0 c 0,-1.16666676 0.23,-2.24999972 0.69,-3.24999972 0.459999,-1.006667 1.103332,-1.886667 1.929999,-2.64 0.826666,-0.746667 1.813331,-1.333333 2.959999,-1.7600004 1.153333,-0.4200004 2.413333,-0.6300006 3.78,-0.6300006 v 0 c 1.36,0 2.613334,0.2100002 3.760001,0.6300006 1.14,0.4266674 2.126667,1.0133334 2.96,1.7600004 0.840001,0.753333 1.490001,1.633333 1.950001,2.64 0.46,1 0.69,2.08333296 0.69,3.24999972 v 0 c 0,1.42666688 -0.336667,2.72666708 -1.01,3.90000028 -0.68,1.173333 -1.610001,2.136667 -2.790001,2.89 z m 1.27,-6.79000028 v 0 c 0,-1.1199998 -0.293333,-2.11999972 -0.88,-2.99999972 -0.58,-0.88 -1.383333,-1.576667 -2.41,-2.09 -1.026667,-0.513333 -2.206668,-0.77 -3.540001,-0.77 v 0 c -1.353333,0 -2.543333,0.256667 -3.57,0.77 -1.026667,0.513333 -1.826667,1.21 -2.4,2.09 -0.573333,0.88 -0.859999,1.87999992 -0.859999,2.99999972 v 0 c 0,1.11999988 0.286666,2.11999988 0.859999,3.00000008 0.573333,0.8800002 1.373333,1.5766672 2.4,2.0900002 1.026667,0.513333 2.216667,0.77 3.57,0.77 v 0 c 0.613333,0 1.21,-0.06 1.790001,-0.18 v 0 l -2.370001,-3.0800002 c 0.02,0 0.133333,-0.056667 0.34,-0.1700001 0.206667,-0.12 0.44,-0.26 0.7,-0.4200001 0.26,-0.16 0.493333,-0.296667 0.7,-0.41 0.206667,-0.113333 0.31,-0.17 0.31,-0.17 v 0 l 2.570001,3.3800004 c 0.88,-0.526667 1.563333,-1.2066671 2.05,-2.0400002 0.493333,-0.8333332 0.74,-1.7566672 0.74,-2.77000008 z"
                           style="fill:#3189bf;fill-opacity:1;fill-rule:nonzero;stroke:none"
                           id="path148"
                           inkscape:connector-curvature="0"
                           inkscape:export-xdpi="19.772099"
                           inkscape:export-ydpi="19.772099" /></g></g></g></g></g></g></g></g></g></g></g></svg>