<?xml version="1.0" encoding="UTF-8" standalone="no"?>
<svg
   xmlns:dc="http://purl.org/dc/elements/1.1/"
   xmlns:cc="http://creativecommons.org/ns#"
   xmlns:rdf="http://www.w3.org/1999/02/22-rdf-syntax-ns#"
   xmlns:svg="http://www.w3.org/2000/svg"
   xmlns="http://www.w3.org/2000/svg"
   xmlns:sodipodi="http://sodipodi.sourceforge.net/DTD/sodipodi-0.dtd"
   xmlns:inkscape="http://www.inkscape.org/namespaces/inkscape"
   height="512"
   viewBox="0 0 24 24"
   width="512"
   version="1.1"
   id="svg23"
   sodipodi:docname="calc-small-light.svg"
   inkscape:version="0.92.5 (2060ec1f9f, 2020-04-08)">
  <metadata
     id="metadata29">
    <rdf:RDF>
      <cc:Work
         rdf:about="">
        <dc:format>image/svg+xml</dc:format>
        <dc:type
           rdf:resource="http://purl.org/dc/dcmitype/StillImage" />
        <dc:title></dc:title>
      </cc:Work>
    </rdf:RDF>
  </metadata>
  <defs
     id="defs27" />
  <sodipodi:namedview
     pagecolor="#ffffff"
     bordercolor="#666666"
     borderopacity="1"
     objecttolerance="10"
     gridtolerance="10"
     guidetolerance="10"
     inkscape:pageopacity="0"
     inkscape:pageshadow="2"
     inkscape:window-width="1178"
     inkscape:window-height="597"
     id="namedview25"
     showgrid="false"
     inkscape:zoom="0.5"
     inkscape:cx="481.62712"
     inkscape:cy="256"
     inkscape:window-x="1070"
     inkscape:window-y="298"
     inkscape:window-maximized="0"
     inkscape:current-layer="svg23" />
  <g
     id="Layer_2"
     data-name="Layer 2">
    <path
       d="m18.5 22.75h-13a2.25 2.25 0 0 1 -2.25-2.25v-17a2.25 2.25 0 0 1 2.25-2.25h13a2.25 2.25 0 0 1 2.25 2.25v17a2.25 2.25 0 0 1 -2.25 2.25zm-13-20a.75.75 0 0 0 -.75.75v17a.75.75 0 0 0 .75.75h13a.75.75 0 0 0 .75-.75v-17a.75.75 0 0 0 -.75-.75z"
       id="path2"
       style="fill:#e6e6e6"
       inkscape:export-xdpi="19.17"
       inkscape:export-ydpi="19.17" />
    <path
       d="m17 9.75h-10a.76.76 0 0 1 -.75-.75v-4a.75.75 0 0 1 .75-.75h10a.75.75 0 0 1 .75.75v4a.76.76 0 0 1 -.75.75zm-9.25-1.5h8.5v-2.5h-8.5z"
       id="path4"
       style="fill:#e6e6e6"
       inkscape:export-xdpi="19.17"
       inkscape:export-ydpi="19.17" />
    <circle
       cx="8"
       cy="12.5"
       r="1"
       id="circle6"
       style="fill:#e6e6e6"
       inkscape:export-xdpi="19.17"
       inkscape:export-ydpi="19.17" />
    <circle
       cx="12"
       cy="12.5"
       r="1"
       id="circle8"
       style="fill:#e6e6e6"
       inkscape:export-xdpi="19.17"
       inkscape:export-ydpi="19.17" />
    <circle
       cx="16"
       cy="12.5"
       r="1"
       id="circle10"
       style="fill:#e6e6e6"
       inkscape:export-xdpi="19.17"
       inkscape:export-ydpi="19.17" />
    <circle
       cx="8"
       cy="15.5"
       r="1"
       id="circle12"
       style="fill:#e6e6e6"
       inkscape:export-xdpi="19.17"
       inkscape:export-ydpi="19.17" />
    <circle
       cx="12"
       cy="15.5"
       r="1"
       id="circle14"
       style="fill:#e6e6e6"
       inkscape:export-xdpi="19.17"
       inkscape:export-ydpi="19.17" />
    <circle
       cx="8"
       cy="18.5"
       r="1"
       id="circle16"
       style="fill:#e6e6e6"
       inkscape:export-xdpi="19.17"
       inkscape:export-ydpi="19.17" />
    <circle
       cx="12"
       cy="18.5"
       r="1"
       id="circle18"
       style="fill:#e6e6e6"
       inkscape:export-xdpi="19.17"
       inkscape:export-ydpi="19.17" />
    <path
       d="m16 19.5a.76.76 0 0 1 -.75-.75v-3.5a.75.75 0 0 1 1.5 0v3.5a.76.76 0 0 1 -.75.75z"
       id="path20"
       style="fill:#e6e6e6"
       inkscape:export-xdpi="19.17"
       inkscape:export-ydpi="19.17" />
  </g>
</svg>
