<?xml version="1.0" encoding="UTF-8" standalone="no"?>
<!-- Created with Inkscape (http://www.inkscape.org/) -->

<svg
   version="1.1"
   id="svg18"
   width="270.452"
   height="388.85068"
   viewBox="0 0 270.452 388.85068"
   sodipodi:docname="shutterstock_222318265.eps"
   xmlns:inkscape="http://www.inkscape.org/namespaces/inkscape"
   xmlns:sodipodi="http://sodipodi.sourceforge.net/DTD/sodipodi-0.dtd"
   xmlns="http://www.w3.org/2000/svg"
   xmlns:svg="http://www.w3.org/2000/svg">
  <defs
     id="defs22" />
  <sodipodi:namedview
     id="namedview20"
     pagecolor="#ffffff"
     bordercolor="#000000"
     borderopacity="0.25"
     inkscape:showpageshadow="2"
     inkscape:pageopacity="0.0"
     inkscape:pagecheckerboard="0"
     inkscape:deskcolor="#d1d1d1"
     showgrid="false" />
  <g
     id="g26"
     inkscape:groupmode="layer"
     inkscape:label="Page 1"
     transform="matrix(1.3333333,0,0,-1.3333333,-442.42398,594.42532)">
    <g
       id="g28"
       transform="scale(0.1)"
       inkscape:export-filename="g28.svg"
       inkscape:export-xdpi="48"
       inkscape:export-ydpi="48">
      <path
         d="m 3780.88,3308.46 v 420.64 c 0,72.94 150.2,429.98 551.5,429.98 398.74,0 549.5,-352.38 551.4,-428.42 h 299.15 c -1.21,208.51 -254.4,727.53 -850.55,727.53 -597.59,0 -850.62,-521.58 -850.62,-729.09 v -429.19 c 19.35,5.44 39.67,8.55 60.76,8.55 h 238.36"
         style="fill:#3465a4;fill-opacity:1;fill-rule:nonzero;stroke:none"
         id="path42" />
      <path
         d="m 4456.23,2438.85 v -226.37 c 0,-68.4 -55.45,-123.85 -123.85,-123.85 -68.41,0 -123.86,55.45 -123.86,123.85 v 226.37 c -49.6,37.55 -81.79,96.88 -81.79,163.89 0,113.57 92.07,205.64 205.65,205.64 113.57,0 205.64,-92.07 205.64,-205.64 0,-67.01 -32.19,-126.34 -81.79,-163.89 z m 726.76,861.06 c -19.35,5.44 -39.67,8.55 -60.76,8.55 H 4883.87 3780.88 3542.52 c -21.09,0 -41.41,-3.11 -60.76,-8.55 -94.33,-26.52 -163.58,-112.97 -163.58,-215.78 V 1766.15 c 0,-123.9 100.44,-224.34 224.34,-224.34 h 1579.71 c 123.9,0 224.34,100.44 224.34,224.34 v 1317.98 c 0,102.81 -69.25,189.26 -163.58,215.78"
         style="fill:#3465a4;fill-opacity:1;fill-rule:nonzero;stroke:none"
         id="path44" />
    </g>
  </g>
</svg>
